<?xml version="1.0" encoding="UTF-8"?>
<svg version="1.1" xmlns="http://www.w3.org/2000/svg" width="1093" height="209">
<path d="M0 0 C0.99 0.33 1.98 0.66 3 1 C5.77142445 1.09180203 8.51718405 1.1259201 11.28848267 1.11352539 C12.14380282 1.11367425 12.99912297 1.11382311 13.88036191 1.11397648 C16.75701734 1.11327994 19.63360953 1.10542843 22.51025391 1.09765625 C24.56816065 1.09573789 26.62606785 1.09427371 28.68397522 1.0932312 C33.12018315 1.09006595 37.55637214 1.08379109 41.99257278 1.07516479 C48.99971629 1.06167635 56.00685343 1.05575564 63.01400757 1.05102539 C77.88434682 1.03991254 92.75467098 1.0203706 107.625 1 C123.683343 0.97800938 139.74167987 0.95742803 155.80003488 0.94658184 C162.7735854 0.94158243 169.74710722 0.93169781 176.72064614 0.91815186 C181.04838719 0.91072252 185.37612421 0.90738271 189.70387077 0.9051857 C191.71915232 0.9033046 193.73443307 0.89968583 195.74970818 0.89425278 C198.48831922 0.88709881 201.22686591 0.88599624 203.96548462 0.88647461 C205.17785811 0.88108217 205.17785811 0.88108217 206.41472399 0.87558079 C211.8859071 0.8859071 211.8859071 0.8859071 213 2 C213.09605864 3.63223456 213.12187821 5.2686439 213.12025452 6.90370178 C213.12163201 7.96304208 213.12300951 9.02238237 213.12442875 10.11382389 C213.12083064 11.29063945 213.11723253 12.46745501 213.11352539 13.67993164 C213.11370619 15.55351553 213.11370619 15.55351553 213.11389065 17.46494961 C213.11326559 20.85449249 213.10830646 24.24397481 213.10128021 27.63350677 C213.09560017 30.80999151 213.0953179 33.98647465 213.09460449 37.16296387 C213.08934978 46.46281392 213.07538873 55.7626574 213.0625 65.0625 C213.041875 85.831875 213.02125 106.60125 213 128 C154.26 128.33 95.52 128.66 35 129 C35 129.33 35 129.66 35 130 C27.41 130 19.82 130 12 130 C12 129.67 12 129.34 12 129 C5.07 129 -1.86 129 -9 129 C-9 129.33 -9 129.66 -9 130 C-15.27 130 -21.54 130 -28 130 C-28 129.67 -28 129.34 -28 129 C-33.28 129 -38.56 129 -44 129 C-44 129.33 -44 129.66 -44 130 C-46.64 130 -49.28 130 -52 130 C-52 129.67 -52 129.34 -52 129 C-58.93 129 -65.86 129 -73 129 C-73 129.33 -73 129.66 -73 130 C-91.15 130 -109.3 130 -128 130 C-128 129.67 -128 129.34 -128 129 C-141.53 129 -155.06 129 -169 129 C-169 129.33 -169 129.66 -169 130 C-171.33294775 130.04241723 -173.66702567 130.04092937 -176 130 C-176.33 129.67 -176.66 129.34 -177 129 C-180.11952621 128.89572252 -183.21713849 128.8579544 -186.33729649 128.8613348 C-187.83323796 128.85707147 -187.83323796 128.85707147 -189.35940048 128.85272202 C-192.74592045 128.84431171 -196.13240651 128.84310189 -199.51893616 128.84178162 C-201.95343226 128.83722057 -204.38792758 128.83222123 -206.82242197 128.82681805 C-212.13851456 128.81603306 -217.4545983 128.8083779 -222.77069855 128.80341911 C-230.6756285 128.79602883 -238.58054176 128.78294941 -246.48546191 128.76867336 C-259.78074483 128.74482514 -273.07603071 128.72563686 -286.37132454 128.70907402 C-299.54164091 128.69265175 -312.71195175 128.67417693 -325.88226128 128.65294075 C-326.70013714 128.65162314 -327.518013 128.65030554 -328.36067297 128.648948 C-332.51399056 128.64224622 -336.66730809 128.63550758 -340.8206256 128.62875474 C-370.26395662 128.58094949 -399.70729281 128.53777663 -429.15063477 128.49731445 C-457.76033911 128.45798733 -486.37003917 128.41657035 -514.97973633 128.37231445 C-515.86109779 128.37095192 -516.74245925 128.36958939 -517.65052864 128.36818558 C-526.50125503 128.35450059 -535.35198136 128.34077302 -544.20270764 128.32701423 C-562.23380647 128.29898519 -580.26490572 128.27124048 -598.29600525 128.2436676 C-599.12510642 128.2423994 -599.9542076 128.2411312 -600.80843305 128.23982458 C-626.22922567 128.20095571 -651.65001988 128.16329237 -677.07081604 128.1268158 C-677.79275837 128.1257794 -678.51470071 128.12474301 -679.25852008 128.12367522 C-708.50567901 128.08170744 -737.75283973 128.04101394 -767 128 C-766.67 86.09 -766.34 44.18 -766 1 C-751.62736351 1.00333092 -751.62736351 1.00333092 -736.96437073 1.00672913 C-730.46398417 1.00820141 -723.96359762 1.00966909 -717.46321106 1.0111084 C-716.19661857 1.01138889 -716.19661857 1.01138889 -714.90443835 1.01167505 C-659.01766765 1.02403316 -603.130897 1.03520616 -547.24412537 1.04234314 C-545.62665862 1.04255023 -545.62665862 1.04255023 -543.97651578 1.04276149 C-520.54488673 1.04575403 -497.11325766 1.04852427 -473.68162856 1.05106533 C-462.19164234 1.05231272 -450.70165613 1.05360927 -439.21166992 1.05493164 C-438.06824602 1.0550624 -436.92482212 1.05519316 -435.74674901 1.05532788 C-398.64985376 1.05959324 -361.55296002 1.06710754 -324.45606569 1.07629722 C-286.35097662 1.08571956 -248.2458884 1.09188306 -210.14079819 1.09391499 C-204.76523628 1.09420317 -199.38967438 1.0945288 -194.01411247 1.09487724 C-192.95606978 1.09494467 -191.89802708 1.09501209 -190.80792249 1.09508156 C-173.74010181 1.0962657 -156.67228372 1.10091028 -139.60446411 1.10683203 C-122.46751256 1.11270453 -105.33056361 1.11497169 -88.19361109 1.11350138 C-77.99804644 1.11273775 -67.8024912 1.11479561 -57.60692824 1.12079754 C-50.80957548 1.12452752 -44.01222893 1.12467781 -37.21487575 1.12183181 C-33.333352 1.12031167 -29.45184614 1.12042881 -25.57032425 1.12488318 C-21.40364806 1.12962883 -17.23701354 1.12676677 -13.07033634 1.12304783 C-11.23329047 1.12698835 -11.23329047 1.12698835 -9.35913256 1.13100848 C-8.26032111 1.12876118 -7.16150965 1.12651389 -6.02940089 1.1241985 C-5.07495545 1.12435448 -4.12051001 1.12451046 -3.13714198 1.12467116 C-1.01699055 1.23856632 -1.01699055 1.23856632 0 0 Z " fill="#0C0C0C" transform="translate(820,38)"/>
<path d="M0 0 C1.88418137 -0.00642769 1.88418137 -0.00642769 3.806427 -0.01298523 C6.45752043 -0.01871587 9.10822291 -0.02017934 11.75927734 -0.01489258 C15.13374273 -0.00910569 18.50765784 -0.0260245 21.88203239 -0.04923725 C25.12968335 -0.06763086 28.37730642 -0.06378692 31.625 -0.0625 C32.82526825 -0.07170975 34.0255365 -0.08091949 35.26217651 -0.09040833 C45.42903093 -0.03475709 52.82502904 1.43127462 60.2890625 8.5546875 C67.5996775 16.26186888 67.289773 27.22683251 67.2578125 37.30078125 C67.27392578 38.3165625 67.29003906 39.33234375 67.30664062 40.37890625 C67.31292242 50.17851094 65.81006109 58.36609325 58.91796875 65.609375 C53.51468916 70.24228601 47.40489821 72.40908447 40.34741211 72.4777832 C39.19869125 72.49061844 38.0499704 72.50345367 36.86643982 72.51667786 C35.62274124 72.52406479 34.37904266 72.53145172 33.09765625 72.5390625 C31.81605118 72.54713425 30.53444611 72.55520599 29.21400452 72.56352234 C26.49626804 72.57854211 23.77855759 72.58838112 21.06079102 72.59594727 C17.60327468 72.60695975 14.14641119 72.64130085 10.68912411 72.68111897 C7.3669964 72.71379529 4.04493209 72.7180831 0.72265625 72.7265625 C-0.50687271 72.74407059 -1.73640167 72.76157867 -3.00318909 72.77961731 C-12.3024176 72.75638034 -19.95264286 71.38409365 -26.9921875 64.98828125 C-34.68832911 56.53157976 -34.26031135 46.31051445 -34.3046875 35.48828125 C-34.3253125 34.24240234 -34.3459375 32.99652344 -34.3671875 31.71289062 C-34.40792711 22.11362073 -33.2174848 15.00427788 -27.0546875 7.30078125 C-18.96321267 0.01643608 -10.44886302 -0.00790753 0 0 Z " fill="#F57413" transform="translate(687.0546875,63.69921875)"/>
<path d="M0 0 C1.25374924 -0.00524185 2.50749847 -0.0104837 3.79924011 -0.0158844 C6.4463157 -0.02229493 9.09252517 -0.02242984 11.73950195 -0.01245117 C14.43675772 -0.00326605 17.13314788 -0.01016596 19.83032227 -0.03295898 C23.74131223 -0.06378429 27.65140737 -0.06702925 31.5625 -0.0625 C33.35516045 -0.07935097 33.35516045 -0.07935097 35.18403625 -0.09654236 C43.61236953 -0.02705563 50.82364001 1.19362142 57.6015625 6.4765625 C58.20097656 7.18425781 58.80039062 7.89195313 59.41796875 8.62109375 C60.34416016 9.66330078 60.34416016 9.66330078 61.2890625 10.7265625 C66.36392228 18.8486822 66.4450135 26.99376872 66.35546875 36.37109375 C66.36707031 37.58216797 66.37867188 38.79324219 66.390625 40.04101562 C66.35936441 49.66406603 65.5928403 58.6907299 58.73046875 65.96484375 C53.39665499 70.44143744 47.27182774 72.53885652 40.38256836 72.62646484 C38.65948708 72.65055923 38.65948708 72.65055923 36.90159607 72.67514038 C31.63304189 72.71972208 26.36463626 72.7611155 21.09594727 72.78369141 C18.32282152 72.79698089 15.55044037 72.8247405 12.77758789 72.86572266 C8.77087224 72.92492691 4.76494341 72.94240285 0.7578125 72.95703125 C-0.47171646 72.97970062 -1.70124542 73.00237 -2.96803284 73.02572632 C-11.9125602 73.00395271 -18.51699848 71.17848879 -25.45703125 65.40625 C-25.97265625 64.77589844 -26.48828125 64.14554688 -27.01953125 63.49609375 C-27.55578125 62.86832031 -28.09203125 62.24054688 -28.64453125 61.59375 C-31.87732344 56.51496 -32.33700252 51.35954049 -32.35546875 45.47265625 C-32.36212555 44.72325775 -32.36878235 43.97385925 -32.37564087 43.20175171 C-32.38572037 41.62345822 -32.39045935 40.04512252 -32.39013672 38.46679688 C-32.39450644 36.07219108 -32.43086271 33.67943628 -32.46875 31.28515625 C-32.53739138 22.17097395 -32.32038651 15.44386843 -26.125 8.2265625 C-25.49207031 7.69675781 -24.85914063 7.16695313 -24.20703125 6.62109375 C-23.58183594 6.07839844 -22.95664063 5.53570312 -22.3125 4.9765625 C-14.99811244 0.05461517 -8.6436105 -0.02112466 0 0 Z " fill="#FBFCFC" transform="translate(255.01953125,63.56640625)"/>
<path d="M0 0 C11.158125 -0.0825 22.31625 -0.165 33.8125 -0.25 C39.06571167 -0.30462402 39.06571167 -0.30462402 44.42504883 -0.36035156 C48.75524902 -0.37841797 48.75524902 -0.37841797 50.79277039 -0.3817749 C52.19317229 -0.38785244 53.59355542 -0.40178381 54.99382019 -0.42230225 C74.72824491 -0.69661187 74.72824491 -0.69661187 82.2278595 5.98480225 C88.66134229 12.83227311 89.55818593 19.10761534 89.3125 28.32421875 C88.76133653 34.80727912 86.7272309 38.23351385 82.25 42.8125 C77.44414533 46.04720988 72.57974818 47.62282131 67 49 C67.66644531 49.6612085 68.33289063 50.32241699 69.01953125 51.00366211 C71.48148458 53.44861419 73.94120164 55.89577144 76.39941406 58.34448242 C77.46557656 59.40560358 78.53263311 60.4658272 79.60058594 61.52514648 C81.13189602 63.04438223 82.6600043 64.56677416 84.1875 66.08984375 C85.10917969 67.00628662 86.03085937 67.92272949 86.98046875 68.86694336 C89 71 89 71 89 72 C70.68217943 73.46572631 70.68217943 73.46572631 64.84765625 70.27734375 C62.60412447 67.97861083 60.80574277 65.65308447 59 63 C57.74569928 61.54805189 56.47562507 60.10952581 55.1875 58.6875 C54.35605469 57.71490234 54.35605469 57.71490234 53.5078125 56.72265625 C52.25900213 55.29590658 50.92053286 53.94821151 49.5625 52.625 C48 51 48 51 48 49 C37.11 49 26.22 49 15 49 C15 56.59 15 64.18 15 72 C10.05 72 5.1 72 0 72 C0 48.24 0 24.48 0 0 Z " fill="#F3620D" transform="translate(772,64)"/>
<path d="M0 0 C27.72 0 55.44 0 84 0 C84 4.62 84 9.24 84 14 C61.23 14 38.46 14 15 14 C15 19.28 15 24.56 15 30 C35.13 30 55.26 30 76 30 C76 33.96 76 37.92 76 42 C55.87 42 35.74 42 15 42 C15 47.28 15 52.56 15 58 C37.77 58 60.54 58 84 58 C84 62.62 84 67.24 84 72 C56.28 72 28.56 72 0 72 C0 48.24 0 24.48 0 0 Z " fill="#F04F08" transform="translate(876,64)"/>
<path d="M0 0 C1.89030056 0.07903696 3.77886897 0.22127294 5.66015625 0.421875 C7.11518555 0.50308594 7.11518555 0.50308594 8.59960938 0.5859375 C10.98327801 0.72684402 13.34824481 0.92297822 15.72265625 1.171875 C16.01809326 1.72311035 16.31353027 2.2743457 16.61791992 2.84228516 C22.27879081 13.37782504 28.03410921 23.83610617 34.16015625 34.109375 C38.82740993 41.93792839 43.41380213 49.80624564 47.91015625 57.734375 C48.4630835 58.70431396 49.01601074 59.67425293 49.58569336 60.67358398 C50.0988208 61.58180908 50.61194824 62.49003418 51.140625 63.42578125 C51.59203857 64.22314697 52.04345215 65.0205127 52.50854492 65.84204102 C53.74144233 68.20792478 54.73184036 70.69483526 55.72265625 73.171875 C49.78265625 73.171875 43.84265625 73.171875 37.72265625 73.171875 C36.40265625 70.903125 35.08265625 68.634375 33.72265625 66.296875 C33.305 65.58418457 32.88734375 64.87149414 32.45703125 64.13720703 C29.72265625 59.39409722 29.72265625 59.39409722 29.72265625 57.171875 C13.22265625 57.171875 -3.27734375 57.171875 -20.27734375 57.171875 C-21.73846898 61.55092997 -21.73846898 61.55092997 -23.15234375 65.9453125 C-24.5376967 69.14894119 -25.5529342 70.94045384 -28.27734375 73.171875 C-34.1614936 74.46070361 -40.337155 73.73227016 -46.27734375 73.171875 C-44.86559664 69.40464456 -43.14193187 65.99792834 -41.14453125 62.5078125 C-40.51087646 61.39857422 -39.87722168 60.28933594 -39.22436523 59.14648438 C-38.53390083 57.94649406 -37.84322161 56.74662732 -37.15234375 55.546875 C-36.43883953 54.30275957 -35.72537994 53.05861855 -35.01196289 51.81445312 C-28.15687694 39.88225741 -21.21494623 27.99109067 -14.05444336 16.23925781 C-12.21556313 13.15841902 -12.21556313 13.15841902 -10.64282227 9.75292969 C-6.04958041 0.50515736 -6.04958041 0.50515736 0 0 Z " fill="#FCFDFC" transform="translate(473.27734375,62.828125)"/>
<path d="M0 0 C13 0 13 0 18.125 3.9375 C19.75368723 5.62144156 21.37861986 7.30902167 23 9 C24.79056606 10.50564387 26.60362152 11.98492298 28.4375 13.4375 C33.211403 17.29825137 37.73388428 21.37437075 42.25 25.53125 C44.93737634 27.94378104 47.68965444 30.2325621 50.5 32.5 C55.30094713 36.37372558 59.86860751 40.45020847 64.39453125 44.640625 C67.19228656 47.17412456 70.10042973 49.58369145 73 52 C73.33 34.84 73.66 17.68 74 0 C78.95 0 83.9 0 89 0 C89 23.76 89 47.52 89 72 C74 72 74 72 70.18359375 70.015625 C69.27738281 69.10296875 68.37117188 68.1903125 67.4375 67.25 C66.37324573 66.2321835 65.30810978 65.21528827 64.2421875 64.19921875 C63.44699707 63.40523682 63.44699707 63.40523682 62.63574219 62.59521484 C59.90694557 59.93402722 56.97705182 57.51596535 54.0625 55.0625 C52.88954429 54.05724922 51.71767292 53.05073185 50.546875 52.04296875 C48.16616839 49.99832321 45.78047191 47.95973474 43.390625 45.92578125 C36.99114457 40.47305183 30.67757815 34.95851358 24.5 29.25390625 C21.73350686 26.75973978 18.86149286 24.38457738 16 22 C15.67 38.5 15.34 55 15 72 C10.05 72 5.1 72 0 72 C0 48.24 0 24.48 0 0 Z " fill="#FDFDFD" transform="translate(113,64)"/>
<path d="M0 0 C1.53412966 0.00560526 3.06826475 0.00987096 4.60240173 0.01286316 C8.61212363 0.02423886 12.62151206 0.05364192 16.63110352 0.0869751 C20.73384085 0.11783423 24.83663283 0.13140212 28.93945312 0.14648438 C36.96891901 0.1785199 44.99805129 0.23122688 53.02734375 0.29296875 C53.02734375 4.91296875 53.02734375 9.53296875 53.02734375 14.29296875 C51.08972168 14.30231445 49.15209961 14.31166016 47.15576172 14.32128906 C40.74143246 14.35686348 34.32745771 14.41069118 27.91337395 14.47687149 C24.02589141 14.51631827 20.13863443 14.54852018 16.25097656 14.56396484 C12.49649799 14.57915034 8.74263961 14.61362816 4.98843765 14.66127777 C3.55883308 14.6760723 2.12913995 14.68400866 0.69945908 14.6848526 C-1.30870198 14.68722943 -3.31677522 14.71663462 -5.32470703 14.74707031 C-6.46610138 14.75595276 -7.60749573 14.76483521 -8.78347778 14.77398682 C-12.6832748 15.40860925 -14.88178489 16.87913379 -17.97265625 19.29296875 C-21.30922791 23.96537036 -20.30085241 30.1149505 -20.28515625 35.60546875 C-20.30126953 36.72115234 -20.31738281 37.83683594 -20.33398438 38.98632812 C-20.33762959 45.13580711 -20.22104646 49.97675452 -16.97265625 55.29296875 C-13.57815552 57.60186501 -10.49193355 57.56564878 -6.45996094 57.61181641 C-5.81564117 57.62186203 -5.17132141 57.63190765 -4.50747681 57.64225769 C-2.38650369 57.67304698 -0.26565655 57.69011253 1.85546875 57.70703125 C3.32949911 57.72574637 4.8035188 57.74532005 6.27752686 57.76571655 C10.15065209 57.8170076 14.02381204 57.85664937 17.89709473 57.89385986 C21.85205656 57.93391858 25.80687433 57.98500238 29.76171875 58.03515625 C37.51683567 58.13187974 45.27200854 58.21527644 53.02734375 58.29296875 C53.02734375 62.91296875 53.02734375 67.53296875 53.02734375 72.29296875 C44.20358419 72.38366921 35.3801389 72.4569136 26.55601692 72.50021744 C22.45774004 72.52101076 18.35980116 72.54917521 14.26171875 72.59472656 C10.30000403 72.63848195 6.33861254 72.6621678 2.37667465 72.67247772 C0.87211908 72.67981627 -0.63242065 72.69414558 -2.13683701 72.71588898 C-13.14094652 72.86847355 -23.17779111 72.02087144 -31.51733398 64.07763672 C-37.6490241 56.5583187 -37.63061905 47.21903943 -37.54907227 37.98876953 C-37.53517333 35.79566329 -37.5694129 33.60681275 -37.60742188 31.4140625 C-37.65797011 22.23319109 -36.58565287 14.68407861 -30.4152832 7.47290039 C-21.88276668 -0.68055727 -11.07941731 -0.11966609 0 0 Z " fill="#FB9725" transform="translate(582.97265625,63.70703125)"/>
<path d="M0 0 C1.50219841 -0.01925285 1.50219841 -0.01925285 3.03474426 -0.03889465 C4.6566291 -0.04997505 4.6566291 -0.04997505 6.3112793 -0.0612793 C7.4248027 -0.06935104 8.53832611 -0.07742279 9.68559265 -0.08573914 C12.04347173 -0.09957533 14.40137079 -0.11029956 16.75927734 -0.11816406 C20.36098239 -0.13538086 23.96177052 -0.17927304 27.56323242 -0.22338867 C29.8542413 -0.23351538 32.14525798 -0.24203155 34.4362793 -0.2487793 C35.51146317 -0.26628738 36.58664703 -0.28379547 37.69441223 -0.30183411 C43.80245842 -0.28415767 47.46435066 0.02354121 52.07299805 4.17700195 C55.24962543 8.94194303 54.44490801 14.37455568 54.44360352 19.94604492 C54.44796922 22.03818633 54.48427426 24.12820357 54.5222168 26.2199707 C54.52808704 27.55720311 54.53205504 28.89444549 54.53393555 30.23168945 C54.54215332 31.44324707 54.55037109 32.65480469 54.55883789 33.90307617 C53.97636115 37.82820841 52.87594215 39.41226021 50.07299805 42.17700195 C46.97632975 44.07931993 44.62664582 44.43280299 41.01660156 44.45166016 C39.50967491 44.46595818 39.50967491 44.46595818 37.9723053 44.48054504 C36.89307297 44.47963364 35.81384064 44.47872223 34.7019043 44.4777832 C33.58742416 44.48206833 32.47294403 44.48635345 31.32469177 44.49076843 C28.96858398 44.49650948 26.61245845 44.49701366 24.25634766 44.49267578 C20.65260564 44.48951695 17.04968538 44.51297486 13.44604492 44.53833008 C11.15633242 44.5406032 8.8666177 44.54130651 6.5769043 44.5402832 C5.4996962 44.54949295 4.4224881 44.5587027 3.31263733 44.56819153 C-3.17847439 44.52807148 -6.96419295 44.11141602 -11.71020508 39.41088867 C-14.18204769 34.87289511 -13.44468197 29.43785941 -13.42797852 24.38745117 C-13.42700784 22.3145782 -13.46860612 20.2454328 -13.51293945 18.1730957 C-13.53481466 7.00580172 -13.53481466 7.00580172 -10.58325195 3.29418945 C-6.99367071 0.43308205 -4.45066524 0.04971716 0 0 Z " fill="#0C0B0B" transform="translate(682.927001953125,77.822998046875)"/>
<path d="M0 0 C1.04269043 -0.00287018 2.08538086 -0.00574036 3.15966797 -0.00869751 C5.35840398 -0.01073383 7.55715829 -0.00523427 9.75585938 0.00732422 C13.11369488 0.02338343 16.47032675 0.00746024 19.828125 -0.01171875 C21.96875265 -0.00973624 24.10937955 -0.00589241 26.25 0 C27.25015137 -0.00607269 28.25030273 -0.01214539 29.28076172 -0.0184021 C34.63303601 0.03537492 38.52833126 0.33491303 43.125 3.3984375 C47.40713399 8.89113258 46.56619206 15.76452239 46.5 22.3984375 C46.51160156 23.56117187 46.52320313 24.72390625 46.53515625 25.921875 C46.49739996 36.92153973 46.49739996 36.92153973 43.125 41.3984375 C38.30112051 45.51527816 32.69941711 44.86605754 26.69140625 44.8671875 C25.58071274 44.87480103 24.47001923 44.88241455 23.32566833 44.89025879 C20.97974899 44.90105092 18.63378164 44.90391652 16.2878418 44.89941406 C12.7034476 44.89844183 9.1211946 44.94007538 5.53710938 44.984375 C3.25521279 44.98958223 0.97330878 44.99227019 -1.30859375 44.9921875 C-2.37750351 45.00858276 -3.44641327 45.02497803 -4.54771423 45.04187012 C-12.84831991 44.96497297 -12.84831991 44.96497297 -16.53540039 42.04882812 C-21.40178399 36.53599704 -20.09703874 29.5067625 -20.125 22.5234375 C-20.145625 21.24339844 -20.16625 19.96335937 -20.1875 18.64453125 C-20.19523438 16.79408203 -20.19523438 16.79408203 -20.203125 14.90625 C-20.2124707 13.77848145 -20.22181641 12.65071289 -20.23144531 11.48876953 C-19.81997105 7.92134405 -19.13810155 6.18173064 -16.875 3.3984375 C-11.59848386 -0.36272402 -6.22607139 -0.0378033 0 0 Z " fill="#0B0C0C" transform="translate(258.875,77.6015625)"/>
<path d="M0 0 C5.67007871 -0.94720572 11.42272892 -1.79622466 17 0 C21.31729176 3.3912222 23.49596038 8.7761385 25.82421875 13.61767578 C27.79757625 17.61601931 30.1094856 21.41235712 32.375 25.25 C33.2866855 26.83375609 34.19681745 28.41840739 35.10546875 30.00390625 C39.94971393 38.40698296 44.98465367 46.69832718 50 55 C51.93509489 52.48123866 53.70037904 49.95010527 55.3203125 47.21875 C55.7652002 46.47230225 56.21008789 45.72585449 56.66845703 44.95678711 C57.14911621 44.14604736 57.62977539 43.33530762 58.125 42.5 C63.0415889 34.25601478 67.99446591 26.03491764 72.97601318 17.83007812 C73.74020717 16.57131971 74.50408405 15.31236872 75.26763916 14.05322266 C76.34699762 12.27333744 77.4272558 10.49400172 78.5078125 8.71484375 C79.13316895 7.68480225 79.75852539 6.65476074 80.40283203 5.59350586 C81.56525404 3.70594715 82.77035305 1.84447043 84 0 C86.95064148 -0.2208564 89.68368231 -0.28060989 92.625 -0.1875 C93.42679687 -0.17396484 94.22859375 -0.16042969 95.0546875 -0.14648438 C97.03674378 -0.11109051 99.01845551 -0.05728234 101 0 C99.47248396 5.53614195 96.7978519 9.97097074 93.8125 14.8125 C92.72498198 16.60009105 91.63775616 18.3878599 90.55078125 20.17578125 C89.97408691 21.12018066 89.39739258 22.06458008 88.80322266 23.03759766 C85.67559669 28.17577983 82.5907087 33.33956006 79.5 38.5 C78.23712344 40.60425326 76.97410342 42.70842043 75.7109375 44.8125 C73.27461978 48.87260502 70.84248928 52.93517066 68.4140625 57 C67.85783203 57.93005859 67.30160156 58.86011719 66.72851562 59.81835938 C65.68173673 61.56894089 64.63611095 63.32021259 63.59179688 65.07226562 C62.90053711 66.22758789 62.90053711 66.22758789 62.1953125 67.40625 C61.79328613 68.07978516 61.39125977 68.75332031 60.97705078 69.44726562 C60 71 60 71 59 72 C53.34183766 73.07804897 47.5750744 73.82502436 42 72 C37.70079238 68.66447692 35.57077307 63.26900088 33.24853516 58.48486328 C31.51818754 55.04108579 29.53662848 51.77256081 27.54516602 48.47485352 C25.89571207 45.74329767 24.27673431 42.99560447 22.6640625 40.2421875 C20.32821187 36.25887899 17.98506975 32.28003296 15.63444519 28.30543518 C14.07528584 25.66793854 12.51921149 23.02862953 10.96365356 20.38900757 C10.20134238 19.09668994 9.43790909 17.80503351 8.67330933 16.5140686 C7.59788619 14.69751731 6.52697433 12.87837671 5.45703125 11.05859375 C4.5285437 9.48549438 4.5285437 9.48549438 3.58129883 7.88061523 C2.16236911 5.29578403 1.02076597 2.76220353 0 0 Z " fill="#FCFCFC" transform="translate(331,64)"/>
<path d="M0 0 C0.99 0.33 1.98 0.66 3 1 C5.75370229 1.09133385 8.48158822 1.12600326 11.23510742 1.11352539 C12.07435257 1.11367142 12.91359772 1.11381744 13.77827454 1.1139679 C16.55403217 1.11327087 19.32972282 1.10548829 22.10546875 1.09765625 C24.02932193 1.09579132 25.95317559 1.09436777 27.87702942 1.09336853 C32.94214182 1.08954924 38.00722558 1.07972394 43.07232666 1.06866455 C48.24027112 1.05843781 53.40822021 1.0538682 58.57617188 1.04882812 C68.71746051 1.03810117 78.85872787 1.02103177 89 1 C88.34 1.99 87.68 2.98 87 4 C84.7592323 4.37401349 84.7592323 4.37401349 81.89769685 4.37259549 C80.26330974 4.38270831 80.26330974 4.38270831 78.59590471 4.39302543 C77.38666924 4.38514439 76.17743376 4.37726335 74.93155479 4.36914349 C73.01094494 4.37433579 73.01094494 4.37433579 71.05153489 4.37963298 C67.46976189 4.38888915 63.88824206 4.3792746 60.30648781 4.36679858 C56.4203991 4.35653773 52.5343373 4.36360035 48.64824355 4.36853105 C41.8282673 4.37476735 35.00836936 4.36979538 28.18840218 4.35761642 C18.04727863 4.33955674 7.90620476 4.33860477 -2.23493193 4.34124239 C-19.29156083 4.34518994 -36.34815494 4.33513774 -53.40477371 4.31719017 C-70.30036211 4.29945749 -87.19593603 4.28789606 -104.09153366 4.28463173 C-105.66552421 4.2843224 -105.66552421 4.2843224 -107.27131255 4.28400682 C-112.60000862 4.28299187 -117.9287047 4.2820877 -123.2574008 4.2812262 C-161.03033436 4.27491988 -198.80324898 4.25469364 -236.57617188 4.22631836 C-273.27897033 4.19877873 -309.9817636 4.1775212 -346.68457031 4.16479492 C-348.38067622 4.16420305 -348.38067622 4.16420305 -350.1110469 4.16359923 C-361.46606136 4.15964377 -372.82107587 4.15581632 -384.1760904 4.15208265 C-407.30891203 4.14447339 -430.44173331 4.13600963 -453.57455444 4.12702942 C-454.63823498 4.12661755 -455.70191551 4.12620568 -456.79782879 4.12578133 C-527.86522707 4.0981652 -598.93261485 4.05062797 -670 4 C-669.67 3.34 -669.34 2.68 -669 2 C-662.590455 0.82100991 -656.21075737 0.86149792 -649.71094608 0.87974548 C-648.58768829 0.87889124 -647.4644305 0.87803699 -646.3071346 0.87715685 C-642.53425378 0.87550939 -638.7614174 0.88101972 -634.98854065 0.88647461 C-632.25998038 0.88731389 -629.53142096 0.88663509 -626.80286068 0.88602352 C-620.86591673 0.88549092 -614.92898375 0.88865905 -608.99204254 0.89425278 C-600.16399054 0.90254709 -591.33594349 0.90507452 -582.50788803 0.90637711 C-567.65706119 0.90871138 -552.80623971 0.91556051 -537.95541573 0.92483521 C-517.68343335 0.937435 -497.41145276 0.94347982 -477.13946711 0.94776857 C-467.69784881 0.94977484 -458.25623059 0.95210227 -448.81461239 0.95451355 C-447.86947014 0.95475456 -446.92432789 0.95499558 -445.95054496 0.95524389 C-423.45669378 0.96105458 -400.96284403 0.97001176 -378.46899414 0.97949219 C-377.48479181 0.97990583 -376.50058948 0.98031948 -375.48656284 0.98074566 C-360.51187518 0.98704329 -345.53718758 0.99350469 -330.5625 1 C-314.58113611 1.006931 -298.59977219 1.01379835 -282.6184082 1.02050781 C-281.14129576 1.0211297 -281.14129576 1.0211297 -279.63434266 1.02176414 C-257.16550737 1.03120685 -234.69667223 1.03975573 -212.22783566 1.04548645 C-211.28439579 1.04572744 -210.34095592 1.04596844 -209.36892696 1.04621673 C-199.95240223 1.04860161 -190.53587748 1.05082959 -181.11935266 1.05282298 C-160.86466375 1.05714557 -140.60998109 1.06423742 -120.35529555 1.07687083 C-105.59864177 1.08603362 -90.8419901 1.09180554 -76.08533359 1.09398818 C-67.30722534 1.09540789 -58.52912882 1.09968848 -49.75102427 1.10793434 C-43.89879322 1.11316415 -38.04656843 1.11482621 -32.19433521 1.11350765 C-28.85275616 1.11286241 -25.51121565 1.1144037 -22.16963739 1.1192044 C-18.58246271 1.12412249 -14.99534165 1.12300753 -11.40816593 1.12025452 C-10.35421173 1.12316738 -9.30025754 1.12608024 -8.21436533 1.12908137 C-6.79498607 1.12609477 -6.79498607 1.12609477 -5.34693247 1.12304783 C-4.11448477 1.12361741 -4.11448477 1.12361741 -2.85713914 1.1241985 C-0.98417789 1.20362708 -0.98417789 1.20362708 0 0 Z " fill="#050404" transform="translate(820,38)"/>
<path d="M0 0 C7.01088148 -0.07425974 14.02153303 -0.12865481 21.03271484 -0.16479492 C23.41687001 -0.179864 25.80099753 -0.20032291 28.18505859 -0.22631836 C31.61562937 -0.26278337 35.045833 -0.27974552 38.4765625 -0.29296875 C40.07064438 -0.31619453 40.07064438 -0.31619453 41.69692993 -0.33988953 C47.18636648 -0.34113267 51.3285129 -0.24253374 56 3 C58.47631221 6.71446831 58.53805227 9.69558186 58 14 C56.66515972 17.23171857 55.85814283 18.58098528 52.70906067 20.11862183 C49.90546157 21.03075757 47.7799835 21.24192397 44.8425293 21.22705078 C43.34153938 21.22682419 43.34153938 21.22682419 41.81022644 21.22659302 C40.7423439 21.21627045 39.67446136 21.20594788 38.57421875 21.1953125 C37.47149124 21.1924826 36.36876373 21.18965271 35.23262024 21.18673706 C31.71746886 21.17555981 28.20257411 21.15045937 24.6875 21.125 C22.30143598 21.11496704 19.91536795 21.10584174 17.52929688 21.09765625 C11.68609934 21.07562845 5.84309315 21.04111513 0 21 C0 14.07 0 7.14 0 0 Z " fill="#0E0B0A" transform="translate(787,78)"/>
<path d="M0 0 C0.66 0.33 1.32 0.66 2 1 C2 42.25 2 83.5 2 126 C-169.27 126 -340.54 126 -517 126 C-517 125.67 -517 125.34 -517 125 C-472.30777785 124.88723716 -427.61555241 124.77582558 -382.92330933 124.67164612 C-382.25948239 124.67009832 -381.59565545 124.66855053 -380.91171255 124.66695583 C-366.47719742 124.63330814 -352.04268173 124.5999048 -337.60816545 124.5667524 C-330.52718832 124.55048772 -323.44621132 124.53416916 -316.36523438 124.51782227 C-315.66067598 124.51619666 -314.95611758 124.51457106 -314.23020892 124.5128962 C-291.48541232 124.4603928 -268.74062616 124.40434762 -245.99584278 124.34642143 C-222.57883095 124.28680225 -199.16181306 124.23084461 -175.7447819 124.17934891 C-160.68389545 124.1462214 -145.62302426 124.1100128 -130.5621572 124.06898809 C-120.65358085 124.0423151 -110.74500013 124.01978873 -100.83640702 124.00032883 C-95.14424322 123.98903334 -89.45209774 123.97609732 -83.75995064 123.95816994 C-55.82277126 123.8715776 -27.92569631 124.1729327 0 125 C-0.00695481 124.26661327 -0.01390962 123.53322654 -0.02107519 122.77761596 C-0.16713207 107.36813425 -0.30827331 91.95862005 -0.4429636 76.54903507 C-0.50863906 69.05064721 -0.57620919 61.55228525 -0.64819336 54.05395508 C-0.71090778 47.52072529 -0.77011455 40.9874749 -0.82505554 34.45417494 C-0.85428781 30.99276086 -0.88531286 27.53138324 -0.92053413 24.07002449 C-0.95972442 20.21216869 -0.99108565 16.35427155 -1.02172852 12.49633789 C-1.04114754 10.76249344 -1.04114754 10.76249344 -1.06095886 8.99362183 C-1.06799835 7.94889206 -1.07503784 6.90416229 -1.08229065 5.82777405 C-1.09473485 4.45752878 -1.09473485 4.45752878 -1.10743046 3.05960178 C-1 1 -1 1 0 0 Z " fill="#020202" transform="translate(1031,39)"/>
<path d="M0 0 C2.45778165 3.11629042 4.41836525 6.36258608 6.35546875 9.82421875 C6.97744141 10.93474609 7.59941406 12.04527344 8.24023438 13.18945312 C8.55951904 13.7631665 8.87880371 14.33687988 9.20776367 14.92797852 C10.19133258 16.69438299 11.18029238 18.45768835 12.16992188 20.22070312 C17 28.86850723 17 28.86850723 17 30 C5.78 30 -5.44 30 -17 30 C-7.7972973 12.74493243 -7.7972973 12.74493243 -4 6.5625 C-3.41025391 5.59086914 -3.41025391 5.59086914 -2.80859375 4.59960938 C-1.87598655 3.06421947 -0.93859587 1.53173632 0 0 Z " fill="#0B0C0B" transform="translate(478,77)"/>
<path d="M0 0 C0.66 0 1.32 0 2 0 C2 7.26 2 14.52 2 22 C2.66 21.67 3.32 21.34 4 21 C5.40931348 20.91568055 6.8225739 20.89275672 8.234375 20.90234375 C9.54583496 20.90729858 9.54583496 20.90729858 10.88378906 20.91235352 C12.30256348 20.92480103 12.30256348 20.92480103 13.75 20.9375 C14.71905273 20.94128662 15.68810547 20.94507324 16.68652344 20.94897461 C20.84445249 20.96537868 25.00228458 20.99352533 29.16015625 21.02050781 C32.1900996 21.03852062 35.22002728 21.05066023 38.25 21.0625 C39.19584961 21.07079834 40.14169922 21.07909668 41.11621094 21.08764648 C42.4276709 21.09260132 42.4276709 21.09260132 43.765625 21.09765625 C44.53680664 21.10289307 45.30798828 21.10812988 46.10253906 21.11352539 C48.08865017 21.11942371 48.08865017 21.11942371 50 20 C51.86722743 20.23552528 53.73402149 20.47535073 55.59765625 20.73779297 C60.0540788 21.22419519 64.5226462 21.10264179 69 21.0625 C69.96550781 21.05798828 70.93101562 21.05347656 71.92578125 21.04882812 C74.28392089 21.03715417 76.64192602 21.02078021 79 21 C79.33 18.36 79.66 15.72 80 13 C63.87179995 12.8556377 63.87179995 12.8556377 47.77734375 13.7734375 C39.83349357 14.42145903 31.88466111 13.94615605 23.9375 13.5625 C22.667854 13.50376709 22.667854 13.50376709 21.37255859 13.44384766 C15.23831935 13.11915967 15.23831935 13.11915967 13 12 C13 11.34 13 10.68 13 10 C36.1 10 59.2 10 83 10 C83 14.62 83 19.24 83 24 C55.28 24 27.56 24 -1 24 C-0.67 16.08 -0.34 8.16 0 0 Z " fill="#F03E01" transform="translate(877,112)"/>
<path d="M0 0 C27.72 0 55.44 0 84 0 C84 4.62 84 9.24 84 14 C61.23 14 38.46 14 15 14 C15 19.28 15 24.56 15 30 C34.8 30 54.6 30 75 30 C75 30.33 75 30.66 75 31 C54.87 31 34.74 31 14 31 C14 25.06 14 19.12 14 13 C36.77 13 59.54 13 83 13 C82.505 12.01 82.505 12.01 82 11 C81.93049459 9.45976004 81.91547643 7.91665012 81.9375 6.375 C81.94652344 5.55773437 81.95554687 4.74046875 81.96484375 3.8984375 C81.97644531 3.27195312 81.98804688 2.64546875 82 2 C80.70304199 2.03029297 79.40608398 2.06058594 78.06982422 2.09179688 C72.00497632 2.23214781 65.9400136 2.36701807 59.875 2.5 C58.78653778 2.52400879 57.69807556 2.54801758 56.57662964 2.57275391 C41.82191949 2.89353516 27.07985279 3.10929628 12.32177734 2.96289062 C11.21656738 2.95451172 10.11135742 2.94613281 8.97265625 2.9375 C8.02656494 2.92589844 7.08047363 2.91429688 6.10571289 2.90234375 C4.01297818 2.76249201 4.01297818 2.76249201 3 4 C2.83996512 6.66426685 2.74057111 9.30560428 2.68359375 11.97265625 C2.66281265 12.77029892 2.64203156 13.56794159 2.62062073 14.38975525 C2.55503842 16.94724611 2.49620033 19.5048428 2.4375 22.0625 C2.39432301 23.79232882 2.35070899 25.52214679 2.30664062 27.25195312 C2.19934828 31.5011926 2.09810574 35.7505389 2 40 C1.01 40.495 1.01 40.495 0 41 C0 27.47 0 13.94 0 0 Z " fill="#FC9814" transform="translate(876,64)"/>
<path d="M0 0 C19.8 0 39.6 0 60 0 C60 4.29 60 8.58 60 13 C51.29883056 13.04513415 42.59773852 13.0818487 33.89647865 13.10362434 C29.85639736 13.11407407 25.81640011 13.1282548 21.77636719 13.15087891 C17.87955267 13.17256512 13.98281913 13.18455967 10.08594894 13.18975449 C8.59714864 13.19345786 7.1083529 13.20068938 5.61958694 13.21146011 C3.53877333 13.22591919 1.45829694 13.22798033 -0.62255859 13.22705078 C-1.80836517 13.231492 -2.99417175 13.23593323 -4.21591187 13.24050903 C-7 13 -7 13 -9 11 C-6.20965739 9.6048287 -3.92774028 9.88044838 -0.80615234 9.88647461 C0.49504547 9.88655014 1.79624329 9.88662567 3.13687134 9.88670349 C4.56260211 9.89181053 5.9883325 9.89702653 7.4140625 9.90234375 C8.86851961 9.90420853 10.32297734 9.90563215 11.7774353 9.90663147 C15.60792776 9.91045195 19.43838237 9.92027824 23.26885986 9.93133545 C27.17663053 9.94155965 31.08440731 9.94613126 34.9921875 9.95117188 C42.6614756 9.96190092 50.3307325 9.97897172 58 10 C58 7.69 58 5.38 58 3 C54.96810227 1.98936742 52.99315143 1.89007131 49.82592773 1.91821289 C48.24430092 1.92800926 48.24430092 1.92800926 46.63072205 1.93800354 C44.92439354 1.95515663 44.92439354 1.95515663 43.18359375 1.97265625 C40.7871108 1.98529821 38.39062635 1.99765948 35.99414062 2.00976562 C32.20608914 2.03464326 28.41811433 2.0626703 24.63012695 2.09594727 C20.98127736 2.12602866 17.33252727 2.14388444 13.68359375 2.16015625 C12.54401718 2.17361588 11.40444061 2.1870755 10.23033142 2.20094299 C8.65343285 2.20601112 8.65343285 2.20601112 7.04467773 2.21118164 C6.11662827 2.21863907 5.1885788 2.2260965 4.23240662 2.23377991 C2 2 2 2 0 0 Z " fill="#F97A09" transform="translate(574,123)"/>
<path d="M0 0 C1.33547127 -0.00422974 1.33547127 -0.00422974 2.69792175 -0.00854492 C4.16683365 -0.00550858 4.16683365 -0.00550858 5.66542053 -0.00241089 C6.69477219 -0.00416321 7.72412384 -0.00591553 8.78466797 -0.00772095 C12.20074632 -0.01213637 15.61677325 -0.00920232 19.03285217 -0.00582886 C21.39935313 -0.00650204 23.76585402 -0.00747218 26.13235474 -0.00872803 C31.09813595 -0.01020462 36.06389921 -0.00805185 41.02967834 -0.00338745 C47.40336253 0.0023067 53.77700458 -0.00096743 60.15068722 -0.00695992 C65.03961506 -0.0105692 69.92853287 -0.00942519 74.81746101 -0.00683212 C77.16786771 -0.00616371 79.51827531 -0.00698829 81.86868095 -0.00931168 C85.15121251 -0.01184384 88.43367536 -0.00798941 91.71620178 -0.00241089 C92.69345215 -0.00443512 93.67070251 -0.00645935 94.67756653 -0.00854492 C95.57070053 -0.0057251 96.46383453 -0.00290527 97.3840332 0 C98.16035064 0.00037703 98.93666807 0.00075405 99.73651028 0.0011425 C101.75550842 0.12698364 101.75550842 0.12698364 104.75550842 1.12698364 C104.75550842 1.78698364 104.75550842 2.44698364 104.75550842 3.12698364 C68.45550842 3.12698364 32.15550842 3.12698364 -5.24449158 3.12698364 C-5.57449158 2.46698364 -5.90449158 1.80698364 -6.24449158 1.12698364 C-3.92088868 -0.0348178 -2.5868416 0.00125693 0 0 Z " fill="#050303" transform="translate(917.2444915771484,38.873016357421875)"/>
<path d="M0 0 C21.78 0 43.56 0 66 0 C66 0.66 66 1.32 66 2 C48.13392857 3.64285714 48.13392857 3.64285714 43 2 C42.67 2.66 42.34 3.32 42 4 C42 3.34 42 2.68 42 2 C40.845 2.165 39.69 2.33 38.5 2.5 C27.69230769 3.84615385 27.69230769 3.84615385 24 2 C23.67 2.66 23.34 3.32 23 4 C23 3.34 23 2.68 23 2 C22.113125 2.165 21.22625 2.33 20.3125 2.5 C14.58209173 3.34061774 8.77575419 3.0781681 3 3 C2.67 4.65 2.34 6.3 2 8 C2.66 8.33 3.32 8.66 4 9 C3.9278125 9.71285156 3.855625 10.42570312 3.78125 11.16015625 C3.18541416 17.2565052 3.18541416 17.2565052 3.0625 23.375 C2.96562959 28.99348396 1.931902 34.46683185 1 40 C0.67 40 0.34 40 0 40 C0 26.8 0 13.6 0 0 Z " fill="#FB971E" transform="translate(772,64)"/>
<path d="M0 0 C1.258125 -0.01675781 2.51625 -0.03351562 3.8125 -0.05078125 C4.864375 0.06910156 5.91625 0.18898437 7 0.3125 C7.66 1.3025 8.32 2.2925 9 3.3125 C4.05 2.9825 -0.9 2.6525 -6 2.3125 C-6 26.0725 -6 49.8325 -6 74.3125 C-6.99 74.3125 -7.98 74.3125 -9 74.3125 C-9.04627898 64.95942389 -9.08184653 55.60638701 -9.10362434 46.25322151 C-9.114075 41.91047251 -9.12825747 37.56780167 -9.15087891 33.22509766 C-9.17256174 29.03651025 -9.18455896 24.84799816 -9.18975449 20.65935898 C-9.19345847 19.0589161 -9.20069113 17.45847749 -9.21146011 15.85806656 C-9.22591463 13.62159468 -9.22798051 11.38543663 -9.22705078 9.14892578 C-9.231492 7.87429474 -9.23593323 6.5996637 -9.24050903 5.28640747 C-8.75544097 -0.71148587 -5.12891295 0.0157651 0 0 Z " fill="#1C1C1C" transform="translate(119,61.6875)"/>
<path d="M0 0 C1.51170935 0.00560547 3.02342421 0.00987107 4.53514099 0.01286316 C8.48568152 0.0242372 12.43588342 0.05363874 16.3862915 0.0869751 C20.42870505 0.11783788 24.4711741 0.13140289 28.51367188 0.14648438 C36.42463338 0.1785169 44.33532127 0.22962128 52.24609375 0.29296875 C52.24609375 0.95296875 52.24609375 1.61296875 52.24609375 2.29296875 C51.12428459 2.30509903 51.12428459 2.30509903 49.97981262 2.31747437 C42.87582563 2.3959402 35.77201605 2.48337975 28.66826344 2.58049583 C25.01756784 2.63009915 21.36689627 2.67642695 17.71606445 2.71484375 C14.18216588 2.75215773 10.64848821 2.79863079 7.11478233 2.85103226 C5.1338726 2.87814328 3.15284493 2.89615836 1.17182922 2.91390991 C-15.43672056 2.69553407 -15.43672056 2.69553407 -29.3046875 10.43359375 C-31.27556146 12.96226222 -32.10142609 15.16106396 -32.75390625 18.29296875 C-33.08390625 19.25332031 -33.41390625 20.21367188 -33.75390625 21.203125 C-35.31161206 26.59060433 -35.22026736 32.16158282 -35.37890625 37.73046875 C-35.41757812 38.84357422 -35.45625 39.95667969 -35.49609375 41.10351562 C-35.58981591 43.83317351 -35.67552919 46.56283438 -35.75390625 49.29296875 C-36.08390625 49.29296875 -36.41390625 49.29296875 -36.75390625 49.29296875 C-36.87892619 45.20385504 -36.9688999 41.1155041 -37.02856445 37.02490234 C-37.0534743 35.63798611 -37.08741627 34.25119788 -37.13110352 32.86474609 C-37.43054815 23.106374 -36.76224779 15.15342668 -30.19555664 7.46948242 C-21.71238703 -0.62436002 -11.01494407 -0.12077683 0 0 Z " fill="#FCD646" transform="translate(582.75390625,63.70703125)"/>
<path d="M0 0 C20.13 0 40.26 0 61 0 C61 0.66 61 1.32 61 2 C41.53 2 22.06 2 2 2 C2 5.96 2 9.92 2 14 C4.00513672 13.96519531 4.00513672 13.96519531 6.05078125 13.9296875 C7.80468192 13.9109292 9.55858862 13.89272907 11.3125 13.875 C12.19357422 13.85824219 13.07464844 13.84148437 13.98242188 13.82421875 C14.82998047 13.81777344 15.67753906 13.81132813 16.55078125 13.8046875 C17.72120972 13.78897705 17.72120972 13.78897705 18.9152832 13.77294922 C21 14 21 14 24 16 C16.08 16 8.16 16 0 16 C0 10.72 0 5.44 0 0 Z " fill="#2B0D08" transform="translate(891,106)"/>
<path d="M0 0 C27.39 0 54.78 0 83 0 C83 3.3 83 6.6 83 10 C82.67 10 82.34 10 82 10 C82 7.03 82 4.06 82 1 C80.70304199 1.03029297 79.40608398 1.06058594 78.06982422 1.09179688 C72.00497632 1.23214781 65.9400136 1.36701807 59.875 1.5 C58.78653778 1.52400879 57.69807556 1.54801758 56.57662964 1.57275391 C41.82191949 1.89353516 27.07985279 2.10929628 12.32177734 1.96289062 C11.21656738 1.95451172 10.11135742 1.94613281 8.97265625 1.9375 C8.02656494 1.92589844 7.08047363 1.91429688 6.10571289 1.90234375 C4.01297818 1.76249201 4.01297818 1.76249201 3 3 C2.83996512 5.66426685 2.74057111 8.30560428 2.68359375 10.97265625 C2.66281265 11.77029892 2.64203156 12.56794159 2.62062073 13.38975525 C2.55503842 15.94724611 2.49620033 18.5048428 2.4375 21.0625 C2.39432301 22.79232882 2.35070899 24.52214679 2.30664062 26.25195312 C2.19934828 30.5011926 2.09810574 34.7505389 2 39 C1.01 39.495 1.01 39.495 0 40 C0 26.8 0 13.6 0 0 Z " fill="#FB7710" transform="translate(876,65)"/>
<path d="M0 0 C1.4589426 0.47730838 2.91713496 0.95691042 4.375 1.4375 C5.18710937 1.70433594 5.99921875 1.97117188 6.8359375 2.24609375 C9 3 9 3 11 4 C12.8179454 4.0909215 14.63925945 4.11753467 16.45947266 4.11352539 C17.60050446 4.11344986 18.74153625 4.11337433 19.91714478 4.11329651 C21.15362762 4.10813522 22.39011047 4.10297394 23.6640625 4.09765625 C25.5575795 4.09553383 25.5575795 4.09553383 27.48934937 4.09336853 C30.84638299 4.08871078 34.203349 4.07972408 37.56036377 4.06866455 C40.98554906 4.0584377 44.41074134 4.05386818 47.8359375 4.04882812 C54.55731043 4.03778238 61.27865131 4.02103194 68 4 C68.495 5.485 68.495 5.485 69 7 C61.46299247 7.11636152 53.92607924 7.20495042 46.38837528 7.25906086 C42.88741667 7.28504487 39.38707706 7.32023267 35.88647461 7.37719727 C31.85264485 7.44242068 27.81945506 7.46627254 23.78515625 7.48828125 C22.54105484 7.51408768 21.29695343 7.5398941 20.01515198 7.56648254 C12.57941155 7.56886123 6.9278153 6.76653236 1 2 C0.67 1.34 0.34 0.68 0 0 Z " fill="#F46006" transform="translate(664,129)"/>
<path d="M0 0 C1.90552643 -0.00287018 1.90552643 -0.00287018 3.84954834 -0.00579834 C6.52581601 -0.00715587 9.20171501 -0.00450288 11.87792969 0.00488281 C15.30668846 0.0163229 18.73513564 0.00967901 22.16388321 -0.00226212 C25.44260007 -0.01122041 28.72127909 -0.00495346 32 0 C33.23123596 -0.00404846 34.46247192 -0.00809692 35.73101807 -0.01226807 C36.86940125 -0.00596375 38.00778442 0.00034058 39.18066406 0.00683594 C40.18325256 0.00842712 41.18584106 0.01001831 42.21881104 0.01165771 C44.734375 0.265625 44.734375 0.265625 47.734375 2.265625 C35.16687009 2.9628925 22.65091783 3.38503723 10.06225586 3.22851562 C9.14581299 3.22013672 8.22937012 3.21175781 7.28515625 3.203125 C6.47731689 3.19152344 5.66947754 3.17992188 4.8371582 3.16796875 C2.54073374 3.17912957 2.54073374 3.17912957 -0.265625 4.265625 C-0.8225 4.10320312 -1.379375 3.94078125 -1.953125 3.7734375 C-5.44525798 3.00658397 -8.76934221 3.65291889 -12.265625 4.140625 C-12.9771875 4.23214844 -13.68875 4.32367188 -14.421875 4.41796875 C-17.75649293 4.8596812 -21.02830416 5.33826747 -24.265625 6.265625 C-18.04275237 -1.20182216 -8.92126449 -0.02952845 0 0 Z " fill="#FB9A24" transform="translate(687.265625,63.734375)"/>
<path d="M0 0 C1.86273696 0.11304942 3.72879415 0.17590441 5.59472656 0.20532227 C7.27601654 0.2352401 7.27601654 0.2352401 8.99127197 0.26576233 C10.19555847 0.28247482 11.39984497 0.29918732 12.640625 0.31640625 C13.87794373 0.33718735 15.11526245 0.35796844 16.39007568 0.37937927 C19.67138691 0.43365872 22.95272733 0.48391779 26.23413086 0.53222656 C29.58583104 0.58256092 32.9374372 0.6382636 36.2890625 0.69335938 C42.85930464 0.80044509 49.42961298 0.90223036 56 1 C56 1.33 56 1.66 56 2 C55.2446698 1.99333817 54.4893396 1.98667633 53.71112061 1.97981262 C46.58977241 1.91967944 39.46854747 1.87401458 32.34701157 1.84456348 C28.68582063 1.82891329 25.02483964 1.80768728 21.36376953 1.77368164 C17.83002918 1.74106443 14.29649066 1.72314212 10.76261139 1.71536827 C8.75954018 1.70713469 6.75655007 1.68371893 4.75360107 1.66011047 C3.53263733 1.65988388 2.31167358 1.65965729 1.05371094 1.65942383 C-0.02106506 1.65276199 -1.09584106 1.64610016 -2.20318604 1.63923645 C-5.38822045 2.0500769 -6.73277195 2.75690845 -9 5 C-10.15927528 8.47782583 -10.11313066 11.18803257 -10.09765625 14.85546875 C-10.0962413 15.51710526 -10.09482635 16.17874176 -10.09336853 16.86042786 C-10.08777996 18.96949828 -10.07522965 21.07846177 -10.0625 23.1875 C-10.05748352 24.61913909 -10.05292087 26.05077985 -10.04882812 27.48242188 C-10.0378143 30.98831588 -10.02055755 34.4941475 -10 38 C-12 37 -12 37 -12.61010742 35.29052734 C-13.43413939 30.44953305 -13.27065991 25.52308011 -13.3125 20.625 C-13.34150391 19.5009375 -13.37050781 18.376875 -13.40039062 17.21875 C-13.44939378 10.84080047 -13.39204504 6.79351168 -9 2 C-5.43010573 -0.76666806 -4.19349471 -1.10741891 0 0 Z " fill="#1E120B" transform="translate(575,79)"/>
<path d="M0 0 C0.33 0 0.66 0 1 0 C1 17.49 1 34.98 1 53 C-1.31 51.35 -3.62 49.7 -6 48 C-6 47.34 -6 46.68 -6 46 C-5.01 46.33 -4.02 46.66 -3 47 C-2.99191315 46.4406778 -2.98382629 45.88135559 -2.97549438 45.30508423 C-2.88961651 39.49774955 -2.7901211 33.69076285 -2.68261719 27.88378906 C-2.64427009 25.71490307 -2.60942745 23.54595223 -2.578125 21.37695312 C-2.53259862 18.26408668 -2.47458427 15.15166894 -2.4140625 12.0390625 C-2.40251129 11.065065 -2.39096008 10.0910675 -2.37905884 9.08755493 C-2.35918915 8.18677216 -2.33931946 7.28598938 -2.31884766 6.35791016 C-2.30552399 5.56293121 -2.29220032 4.76795227 -2.2784729 3.94888306 C-2 2 -2 2 0 0 Z " fill="#111212" transform="translate(186,64)"/>
<path d="M0 0 C3.0604194 0.15745826 6.101419 0.25866877 9.1640625 0.31640625 C10.52487442 0.3475779 10.52487442 0.3475779 11.91317749 0.37937927 C14.8170398 0.44487135 17.72099405 0.50375814 20.625 0.5625 C22.59115542 0.60568555 24.55730147 0.64929985 26.5234375 0.69335938 C31.34886362 0.80055239 36.1743824 0.90182081 41 1 C41 1.33 41 1.66 41 2 C40.17434036 2.00546844 40.17434036 2.00546844 39.33200073 2.01104736 C33.58874708 2.05294677 27.84628705 2.12234387 22.10351562 2.20751953 C19.96199491 2.23569744 17.82037082 2.25692775 15.67871094 2.27099609 C12.59516593 2.29246925 9.51285982 2.33914317 6.4296875 2.390625 C5.47633514 2.39185364 4.52298279 2.39308228 3.54074097 2.39434814 C-2.09215379 2.51769666 -5.6254609 3.08752969 -10 7 C-12.25075111 10.14274259 -12.29758472 13.05443416 -12.4140625 16.859375 C-12.45273437 17.97441406 -12.49140625 19.08945313 -12.53125 20.23828125 C-12.5621875 21.39714844 -12.593125 22.55601563 -12.625 23.75 C-12.66367187 24.92433594 -12.70234375 26.09867188 -12.7421875 27.30859375 C-12.8363982 30.20557268 -12.92201602 33.10254626 -13 36 C-13.33 36 -13.66 36 -14 36 C-14.0992502 31.96166211 -14.17164562 27.92380128 -14.21972656 23.88452148 C-14.2397799 22.51199977 -14.26703028 21.13956283 -14.30175781 19.76733398 C-14.35054552 17.78927956 -14.37088876 15.81058881 -14.390625 13.83203125 C-14.41157227 12.64327393 -14.43251953 11.4545166 -14.45410156 10.22973633 C-13.91025886 6.36172824 -12.70559898 4.75925909 -10 2 C-7.9296875 0.8203125 -7.9296875 0.8203125 -5.875 0.125 C-5.19179688 -0.11992188 -4.50859375 -0.36484375 -3.8046875 -0.6171875 C-2 -1 -2 -1 0 0 Z " fill="#FBE048" transform="translate(575,76)"/>
<path d="M0 0 C0.66 0.33 1.32 0.66 2 1 C1.50556396 1.67192383 1.01112793 2.34384766 0.50170898 3.03613281 C-5.49940554 12.04496764 -6.02402284 19.20132554 -5.9375 29.75 C-5.95064359 31.23701015 -5.96690059 32.72399617 -5.98632812 34.2109375 C-6.02668082 37.80772644 -6.02525443 41.40300173 -6 45 C-9.27181955 41.72818045 -8.29639193 37.71669782 -8.32226562 33.26171875 C-8.31904297 31.97910156 -8.31582031 30.69648437 -8.3125 29.375 C-8.32861328 28.11558594 -8.34472656 26.85617188 -8.36132812 25.55859375 C-8.36649683 15.7070478 -6.84359345 8.98624438 -1 1 C-0.67 0.67 -0.34 0.34 0 0 Z " fill="#E28C1A" transform="translate(661,70)"/>
<path d="M0 0 C-1.96133591 0.99374353 -3.92088696 1.96476747 -5.9296875 2.859375 C-10.72852558 5.0564334 -15.16777554 7.40114049 -18 12 C-18.80761799 14.9058014 -19.30036765 17.71583258 -19.67578125 20.70703125 C-20 23 -20 23 -21 24 C-21.15764405 25.77869726 -21.25100677 27.56318476 -21.31640625 29.34765625 C-21.35830078 30.42724609 -21.40019531 31.50683594 -21.44335938 32.61914062 C-21.48267578 33.75544922 -21.52199219 34.89175781 -21.5625 36.0625 C-21.60568359 37.20267578 -21.64886719 38.34285156 -21.69335938 39.51757812 C-21.79982839 42.34492195 -21.90184207 45.17235738 -22 48 C-22.33 48 -22.66 48 -23 48 C-23.12501994 43.91088629 -23.21499365 39.82253535 -23.2746582 35.73193359 C-23.29956805 34.34501736 -23.33351002 32.95822913 -23.37719727 31.57177734 C-23.6760522 21.83262236 -23.15395254 13.50516834 -16.19433594 6.07128906 C-11.19075444 1.43108006 -6.87982028 -0.31999164 0 0 Z " fill="#FEE844" transform="translate(569,65)"/>
<path d="M0 0 C1.81631676 0.00424484 1.81631676 0.00424484 3.66932678 0.00857544 C7.52053893 0.0197322 11.37151489 0.04482895 15.22265625 0.0703125 C17.84049142 0.0803481 20.45833026 0.08947294 23.07617188 0.09765625 C29.47924667 0.11965683 35.88218458 0.15308974 42.28515625 0.1953125 C42.28515625 0.5253125 42.28515625 0.8553125 42.28515625 1.1953125 C41.69126602 1.20339935 41.09737579 1.21148621 40.48548889 1.21981812 C34.27161224 1.30626573 28.05803995 1.40578409 21.84448242 1.51269531 C19.52943049 1.55084041 17.21432222 1.58571782 14.89916992 1.6171875 C11.56018006 1.66315337 8.22157331 1.72109497 4.8828125 1.78125 C3.34476707 1.79857681 3.34476707 1.79857681 1.77565002 1.81625366 C-4.29890847 1.93937417 -9.84501327 2.62999809 -15.71484375 4.1953125 C-16.58238281 4.40414062 -17.44992187 4.61296875 -18.34375 4.828125 C-18.98183594 4.99054688 -19.61992188 5.15296875 -20.27734375 5.3203125 C-21.41171875 5.6090625 -22.54609375 5.8978125 -23.71484375 6.1953125 C-17.58338787 -1.16243455 -8.79341485 -0.07778593 0 0 Z " fill="#FBC92F" transform="translate(686.71484375,63.8046875)"/>
<path d="M0 0 C0.66 0.33 1.32 0.66 2 1 C3.92417435 1.08512426 5.85131092 1.10717439 7.77734375 1.09765625 C8.93041016 1.09443359 10.08347656 1.09121094 11.27148438 1.08789062 C12.48126953 1.07951172 13.69105469 1.07113281 14.9375 1.0625 C16.14341797 1.05798828 17.34933594 1.05347656 18.59179688 1.04882812 C20.82935558 1.04008278 23.06690783 1.02929401 25.30444336 1.01586914 C27.20293671 1.00469243 29.10147375 1 31 1 C31.495 2.485 31.495 2.485 32 4 C20.78 4 9.56 4 -2 4 C-1.34 2.68 -0.68 1.36 0 0 Z " fill="#020303" transform="translate(463,103)"/>
<path d="M0 0 C2.89344986 0.08510147 4.54767656 0.53928993 6.59326172 2.62280273 C7.37854248 3.58101929 7.37854248 3.58101929 8.1796875 4.55859375 C8.97608643 5.52043579 8.97608643 5.52043579 9.78857422 6.50170898 C10.18834473 6.99614502 10.58811523 7.49058105 11 8 C7.58378212 8.14539953 4.16836009 8.23409725 0.75 8.3125 C-0.21808594 8.35439453 -1.18617188 8.39628906 -2.18359375 8.43945312 C-9.4019949 8.56390832 -9.4019949 8.56390832 -12.671875 5.48046875 C-13.11015625 4.66191406 -13.5484375 3.84335938 -14 3 C-12.68 3.33 -11.36 3.66 -10 4 C-10 4.66 -10 5.32 -10 6 C-9.175 5.835 -8.35 5.67 -7.5 5.5 C-3.58727683 4.94103955 0.05183173 4.93192813 4 5 C4 4.34 4 3.68 4 3 C2.0399719 1.36323743 2.0399719 1.36323743 0 0 Z " fill="#F24702" transform="translate(850,128)"/>
<path d="M0 0 C0.66 0 1.32 0 2 0 C1.979375 1.093125 1.95875 2.18625 1.9375 3.3125 C1.81455548 6.94384191 1.81455548 6.94384191 3 10 C2.67 10.99 2.34 11.98 2 13 C5.3 13 8.6 13 12 13 C11.79375 12.0925 11.5875 11.185 11.375 10.25 C11 7 11 7 13 3 C13 7.29 13 11.58 13 16 C3.375 16.25 3.375 16.25 0 14 C-0.29296875 10.7421875 -0.29296875 10.7421875 -0.1875 6.875 C-0.16042969 5.59367187 -0.13335938 4.31234375 -0.10546875 2.9921875 C-0.07066406 2.00476563 -0.03585937 1.01734375 0 0 Z " fill="#ED4703" transform="translate(773,120)"/>
<path d="M0 0 C1.4606285 2.64738916 2 3.89448334 2 7 C2.66 7 3.32 7 4 7 C4.309375 8.216875 4.61875 9.43375 4.9375 10.6875 C6.6901254 15.52440246 9.65451461 17.01431011 14.13671875 19.1875 C14.75160156 19.455625 15.36648438 19.72375 16 20 C13 21 13 21 11.09765625 20.1796875 C4.8767408 16.19161502 0.7159007 12.48756669 -1 5 C-0.625 2.125 -0.625 2.125 0 0 Z " fill="#F49B1A" transform="translate(548,113)"/>
<path d="M0 0 C-1.94514847 0.99198259 -3.87827713 1.94930305 -5.89453125 2.7890625 C-11.75293866 5.34242133 -15.05663886 9.07612744 -19 14 C-19.66 14.66 -20.32 15.32 -21 16 C-20.67821373 10.69052653 -17.78489996 7.44973603 -14 4 C-9.45110646 0.90711414 -5.5865891 -0.55865891 0 0 Z " fill="#F7E25B" transform="translate(569,65)"/>
<path d="M0 0 C0.76183594 -0.01417969 1.52367188 -0.02835938 2.30859375 -0.04296875 C4.79597315 0.21137334 6.41058106 0.94732804 8.5625 2.1875 C8.5625 2.5175 8.5625 2.8475 8.5625 3.1875 C2.9525 3.1875 -2.6575 3.1875 -8.4375 3.1875 C-6.69235537 -0.30278927 -3.51916008 0.02967251 0 0 Z " fill="#050606" transform="translate(82.4375,38.8125)"/>
<path d="M0 0 C0.33 0.66 0.66 1.32 1 2 C-0.43359375 4.8203125 -0.43359375 4.8203125 -2.4375 8.125 C-3.42556641 9.76855469 -3.42556641 9.76855469 -4.43359375 11.4453125 C-4.95050781 12.28835937 -5.46742188 13.13140625 -6 14 C-9.0120432 11.13488574 -10.67585611 8.97243168 -12 5 C-10 5 -10 5 -7.875 7 C-7.25625 7.66 -6.6375 8.32 -6 9 C-3.03 4.545 -3.03 4.545 0 0 Z " fill="#050605" transform="translate(388,106)"/>
<path d="M0 0 C0.66 0.33 1.32 0.66 2 1 C0.88407791 3.00507927 -0.24298712 5.00396096 -1.375 7 C-2.31472656 8.670625 -2.31472656 8.670625 -3.2734375 10.375 C-3.84320312 11.24125 -4.41296875 12.1075 -5 13 C-5.66 13 -6.32 13 -7 13 C-5.60332244 8.11162854 -3.65571105 3.65571105 0 0 Z " fill="#F2AC2B" transform="translate(661,70)"/>
<path d="M0 0 C0 0.33 0 0.66 0 1 C-0.556875 1.12117188 -1.11375 1.24234375 -1.6875 1.3671875 C-6.81564662 2.49330078 -11.91192278 3.70485307 -17 5 C-12.34373165 -0.58752202 -6.93067183 -1.69040776 0 0 Z " fill="#F3B32C" transform="translate(680,65)"/>
<path d="M0 0 C4.06051787 1.35350596 4.64228453 3.27512664 6.75 6.9375 C7.38421875 8.01902344 8.0184375 9.10054687 8.671875 10.21484375 C9.11015625 11.13394531 9.5484375 12.05304688 10 13 C9.67 13.66 9.34 14.32 9 15 C5.65830522 10.1334542 2.47696185 5.36675067 0 0 Z " fill="#040505" transform="translate(349,99)"/>
<path d="M0 0 C4.56048012 3.61251516 8.01665146 6.98797445 11 12 C7.612801 10.5611898 5.6405896 8.77880501 3.25 6 C2.63640625 5.29875 2.0228125 4.5975 1.390625 3.875 C0 2 0 2 0 0 Z " fill="#130507" transform="translate(823,118)"/>
<path d="M0 0 C7.59 0 15.18 0 23 0 C23 0.33 23 0.66 23 1 C15.41 1 7.82 1 0 1 C0 0.67 0 0.34 0 0 Z " fill="#050000" transform="translate(604,167)"/>
<path d="M0 0 C1.31223496 3.93670488 0.24296256 6.12488144 -1 10 C-1.66 9.34 -2.32 8.68 -3 8 C-2.75 4.4375 -2.75 4.4375 -2 1 C-1.34 0.67 -0.68 0.34 0 0 Z " fill="#F0BF47" transform="translate(549,79)"/>
<path d="M0 0 C7.26 0 14.52 0 22 0 C22 0.33 22 0.66 22 1 C14.74 1 7.48 1 0 1 C0 0.67 0 0.34 0 0 Z " fill="#0C0C0C" transform="translate(240,167)"/>
<path d="M0 0 C6.6 0 13.2 0 20 0 C20 0.33 20 0.66 20 1 C13.4 1 6.8 1 0 1 C0 0.67 0 0.34 0 0 Z " fill="#060603" transform="translate(415,167)"/>
<path d="M0 0 C6.6 0 13.2 0 20 0 C20 0.33 20 0.66 20 1 C13.4 1 6.8 1 0 1 C0 0.67 0 0.34 0 0 Z " fill="#050505" transform="translate(335,167)"/>
<path d="M0 0 C2.64 1.98 5.28 3.96 8 6 C7.67 6.99 7.34 7.98 7 9 C3.87386607 6.03839944 1.95216435 3.90432869 0 0 Z " fill="#121213" transform="translate(179,129)"/>
<path d="M0 0 C4.67692308 1.47692308 4.67692308 1.47692308 6.3125 4.125 C6.539375 4.74375 6.76625 5.3625 7 6 C5.0625 5.6875 5.0625 5.6875 3 5 C2.67 4.01 2.34 3.02 2 2 C1.34 2 0.68 2 0 2 C0 1.34 0 0.68 0 0 Z " fill="#1B1C1C" transform="translate(297,79)"/>
<path d="M0 0 C5.94 0 11.88 0 18 0 C18 0.33 18 0.66 18 1 C12.06 1 6.12 1 0 1 C0 0.67 0 0.34 0 0 Z " fill="#160505" transform="translate(901,167)"/>
<path d="M0 0 C2.86724686 0.57344937 3.8614515 0.8614515 6 3 C-1.42857143 4.28571429 -1.42857143 4.28571429 -5 3 C-3.35 2.34 -1.7 1.68 0 1 C0 0.67 0 0.34 0 0 Z " fill="#F5BC46" transform="translate(567,64)"/>
<path d="M0 0 C4.95 0 9.9 0 15 0 C15 0.33 15 0.66 15 1 C10.05 1 5.1 1 0 1 C0 0.67 0 0.34 0 0 Z " fill="#110400" transform="translate(748,167)"/>
<path d="M0 0 C4.95 0 9.9 0 15 0 C15 0.33 15 0.66 15 1 C10.05 1 5.1 1 0 1 C0 0.67 0 0.34 0 0 Z " fill="#0C0400" transform="translate(588,167)"/>
<path d="M0 0 C4.62 0 9.24 0 14 0 C14 0.33 14 0.66 14 1 C9.38 1 4.76 1 0 1 C0 0.67 0 0.34 0 0 Z " fill="#190B07" transform="translate(812,167)"/>
<path d="M0 0 C3.96 0 7.92 0 12 0 C12 0.33 12 0.66 12 1 C6.06 1.495 6.06 1.495 0 2 C0 1.34 0 0.68 0 0 Z " fill="#080808" transform="translate(271,167)"/>
<path d="M0 0 C3.96 0 7.92 0 12 0 C12 0.33 12 0.66 12 1 C8.04 1 4.08 1 0 1 C0 0.67 0 0.34 0 0 Z " fill="#140E04" transform="translate(520,167)"/>
<path d="M0 0 C3.96 0 7.92 0 12 0 C12 0.33 12 0.66 12 1 C8.04 1 4.08 1 0 1 C0 0.67 0 0.34 0 0 Z " fill="#050000" transform="translate(495,167)"/>
<path d="M0 0 C3.63 0 7.26 0 11 0 C11 0.33 11 0.66 11 1 C7.37 1 3.74 1 0 1 C0 0.67 0 0.34 0 0 Z " fill="#0F0303" transform="translate(960,167)"/>
<path d="M0 0 C3.63 0 7.26 0 11 0 C11 0.33 11 0.66 11 1 C7.37 1 3.74 1 0 1 C0 0.67 0 0.34 0 0 Z " fill="#110000" transform="translate(936,167)"/>
<path d="M0 0 C3.63 0 7.26 0 11 0 C11 0.33 11 0.66 11 1 C7.37 1 3.74 1 0 1 C0 0.67 0 0.34 0 0 Z " fill="#050000" transform="translate(864,167)"/>
<path d="M0 0 C3.63 0 7.26 0 11 0 C11 0.33 11 0.66 11 1 C7.37 1 3.74 1 0 1 C0 0.67 0 0.34 0 0 Z " fill="#030303" transform="translate(536,167)"/>
<path d="M0 0 C3.63 0 7.26 0 11 0 C11 0.33 11 0.66 11 1 C7.37 1 3.74 1 0 1 C0 0.67 0 0.34 0 0 Z " fill="#090909" transform="translate(224,167)"/>
<path d="M0 0 C3.63 0 7.26 0 11 0 C11 0.33 11 0.66 11 1 C7.37 1 3.74 1 0 1 C0 0.67 0 0.34 0 0 Z " fill="#0F0F0F" transform="translate(96,167)"/>
<path d="M0 0 C3.3 0 6.6 0 10 0 C10 0.33 10 0.66 10 1 C6.7 1 3.4 1 0 1 C0 0.67 0 0.34 0 0 Z " fill="#0B0500" transform="translate(681,167)"/>
<path d="M0 0 C2.97 0 5.94 0 9 0 C9 0.33 9 0.66 9 1 C6.03 1 3.06 1 0 1 C0 0.67 0 0.34 0 0 Z " fill="#000000" transform="translate(876,167)"/>
<path d="M0 0 C2.64 0 5.28 0 8 0 C8 0.33 8 0.66 8 1 C5.36 1 2.72 1 0 1 C0 0.67 0 0.34 0 0 Z " fill="#000000" transform="translate(655,167)"/>
<path d="M0 0 C2.31 0 4.62 0 7 0 C7 0.33 7 0.66 7 1 C4.69 1 2.38 1 0 1 C0 0.67 0 0.34 0 0 Z " fill="#090000" transform="translate(892,167)"/>
<path d="M0 0 C2.31 0 4.62 0 7 0 C7 0.33 7 0.66 7 1 C4.69 1 2.38 1 0 1 C0 0.67 0 0.34 0 0 Z " fill="#2A0E00" transform="translate(784,167)"/>
<path d="M0 0 C2.31 0 4.62 0 7 0 C7 0.33 7 0.66 7 1 C4.69 1 2.38 1 0 1 C0 0.67 0 0.34 0 0 Z " fill="#000000" transform="translate(672,167)"/>
<path d="M0 0 C2.31 0 4.62 0 7 0 C7 0.33 7 0.66 7 1 C4.69 1 2.38 1 0 1 C0 0.67 0 0.34 0 0 Z " fill="#000000" transform="translate(572,167)"/>
<path d="M0 0 C2.31 0 4.62 0 7 0 C7 0.33 7 0.66 7 1 C4.69 1 2.38 1 0 1 C0 0.67 0 0.34 0 0 Z " fill="#120000" transform="translate(484,167)"/>
<path d="M0 0 C2.31 0 4.62 0 7 0 C7 0.33 7 0.66 7 1 C4.69 1 2.38 1 0 1 C0 0.67 0 0.34 0 0 Z " fill="#070707" transform="translate(320,167)"/>
<path d="M0 0 C2.31 0 4.62 0 7 0 C7 0.33 7 0.66 7 1 C4.69 1 2.38 1 0 1 C0 0.67 0 0.34 0 0 Z " fill="#090909" transform="translate(300,167)"/>
<path d="M0 0 C2.31 0 4.62 0 7 0 C7 0.33 7 0.66 7 1 C4.69 1 2.38 1 0 1 C0 0.67 0 0.34 0 0 Z " fill="#000000" transform="translate(167,167)"/>
<path d="M0 0 C2.31 0 4.62 0 7 0 C7 0.33 7 0.66 7 1 C4.69 1 2.38 1 0 1 C0 0.67 0 0.34 0 0 Z " fill="#000000" transform="translate(88,167)"/>
<path d="M0 0 C1.98 0 3.96 0 6 0 C6 0.33 6 0.66 6 1 C4.02 1 2.04 1 0 1 C0 0.67 0 0.34 0 0 Z " fill="#110707" transform="translate(1008,167)"/>
<path d="M0 0 C1.98 0 3.96 0 6 0 C6 0.33 6 0.66 6 1 C4.02 1 2.04 1 0 1 C0 0.67 0 0.34 0 0 Z " fill="#150A00" transform="translate(988,167)"/>
<path d="M0 0 C1.98 0 3.96 0 6 0 C6 0.33 6 0.66 6 1 C4.02 1 2.04 1 0 1 C0 0.67 0 0.34 0 0 Z " fill="#0A0A00" transform="translate(928,167)"/>
<path d="M0 0 C1.98 0 3.96 0 6 0 C6 0.33 6 0.66 6 1 C4.02 1 2.04 1 0 1 C0 0.67 0 0.34 0 0 Z " fill="#000000" transform="translate(856,167)"/>
<path d="M0 0 C1.98 0 3.96 0 6 0 C6 0.33 6 0.66 6 1 C4.02 1 2.04 1 0 1 C0 0.67 0 0.34 0 0 Z " fill="#000000" transform="translate(357,167)"/>
<path d="M0 0 C1.98 0 3.96 0 6 0 C6 0.33 6 0.66 6 1 C4.02 1 2.04 1 0 1 C0 0.67 0 0.34 0 0 Z " fill="#000000" transform="translate(132,167)"/>
<path d="M0 0 C1.65 0 3.3 0 5 0 C5 0.33 5 0.66 5 1 C3.35 1 1.7 1 0 1 C0 0.67 0 0.34 0 0 Z " fill="#000000" transform="translate(464,167)"/>
<path d="M0 0 C1.65 0 3.3 0 5 0 C5 0.33 5 0.66 5 1 C3.35 1 1.7 1 0 1 C0 0.67 0 0.34 0 0 Z " fill="#000000" transform="translate(408,167)"/>
<path d="M0 0 C1.65 0 3.3 0 5 0 C5 0.33 5 0.66 5 1 C3.35 1 1.7 1 0 1 C0 0.67 0 0.34 0 0 Z " fill="#000000" transform="translate(366,167)"/>
<path d="M0 0 C1.65 0 3.3 0 5 0 C5 0.33 5 0.66 5 1 C3.35 1 1.7 1 0 1 C0 0.67 0 0.34 0 0 Z " fill="#171717" transform="translate(265,167)"/>
<path d="M0 0 C4 1 4 1 4 1 Z " fill="#000000" transform="translate(979,167)"/>
<path d="M0 0 C4 1 4 1 4 1 Z " fill="#000000" transform="translate(973,167)"/>
<path d="M0 0 C4 1 4 1 4 1 Z " fill="#000000" transform="translate(887,167)"/>
<path d="M0 0 C4 1 4 1 4 1 Z " fill="#101010" transform="translate(375,167)"/>
<path d="M0 0 C4 1 4 1 4 1 Z " fill="#000000" transform="translate(295,167)"/>
<path d="M0 0 C4 1 4 1 4 1 Z " fill="#000000" transform="translate(207,167)"/>
<path d="M0 0 C4 1 4 1 4 1 Z " fill="#000000" transform="translate(199,167)"/>
<path d="M0 0 C4 1 4 1 4 1 Z " fill="#000000" transform="translate(80,167)"/>
<path d="M0 0 C4 1 4 1 4 1 Z " fill="#000000" transform="translate(54,167)"/>
<path d="M0 0 C1 4 1 4 1 4 Z " fill="#000000" transform="translate(52,105)"/>
<path d="M0 0 C1 4 1 4 1 4 Z " fill="#000000" transform="translate(52,100)"/>
<path d="M0 0 C3 1 3 1 3 1 Z " fill="#000000" transform="translate(920,167)"/>
<path d="M0 0 C3 1 3 1 3 1 Z " fill="#150000" transform="translate(668,167)"/>
<path d="M0 0 C3 1 3 1 3 1 Z " fill="#150000" transform="translate(664,167)"/>
<path d="M0 0 C3 1 3 1 3 1 Z " fill="#000000" transform="translate(640,167)"/>
<path d="M0 0 C3 1 3 1 3 1 Z " fill="#150000" transform="translate(632,167)"/>
<path d="M0 0 C3 1 3 1 3 1 Z " fill="#000000" transform="translate(628,167)"/>
<path d="M0 0 C3 1 3 1 3 1 Z " fill="#150000" transform="translate(584,167)"/>
<path d="M0 0 C3 1 3 1 3 1 Z " fill="#150000" transform="translate(568,167)"/>
<path d="M0 0 C3 1 3 1 3 1 Z " fill="#000000" transform="translate(560,167)"/>
<path d="M0 0 C3 1 3 1 3 1 Z " fill="#000000" transform="translate(552,167)"/>
<path d="M0 0 C3 1 3 1 3 1 Z " fill="#111111" transform="translate(480,167)"/>
<path d="M0 0 C3 1 3 1 3 1 Z " fill="#000000" transform="translate(476,167)"/>
<path d="M0 0 C3 1 3 1 3 1 Z " fill="#000000" transform="translate(456,167)"/>
<path d="M0 0 C3 1 3 1 3 1 Z " fill="#000000" transform="translate(448,167)"/>
<path d="M0 0 C3 1 3 1 3 1 Z " fill="#111111" transform="translate(400,167)"/>
<path d="M0 0 C3 1 3 1 3 1 Z " fill="#151500" transform="translate(392,167)"/>
<path d="M0 0 C3 1 3 1 3 1 Z " fill="#000000" transform="translate(384,167)"/>
<path d="M0 0 C3 1 3 1 3 1 Z " fill="#151500" transform="translate(328,167)"/>
<path d="M0 0 C3 1 3 1 3 1 Z " fill="#000000" transform="translate(312,167)"/>
<path d="M0 0 C3 1 3 1 3 1 Z " fill="#000000" transform="translate(288,167)"/>
<path d="M0 0 C3 1 3 1 3 1 Z " fill="#151515" transform="translate(216,167)"/>
<path d="M0 0 C3 1 3 1 3 1 Z " fill="#000000" transform="translate(212,167)"/>
<path d="M0 0 C3 1 3 1 3 1 Z " fill="#151515" transform="translate(192,167)"/>
<path d="M0 0 C3 1 3 1 3 1 Z " fill="#000000" transform="translate(185,167)"/>
<path d="M0 0 C3 1 3 1 3 1 Z " fill="#000000" transform="translate(180,167)"/>
<path d="M0 0 C3 1 3 1 3 1 Z " fill="#000000" transform="translate(176,167)"/>
<path d="M0 0 C3 1 3 1 3 1 Z " fill="#000000" transform="translate(160,167)"/>
<path d="M0 0 C3 1 3 1 3 1 Z " fill="#000000" transform="translate(155,167)"/>
<path d="M0 0 C3 1 3 1 3 1 Z " fill="#000000" transform="translate(151,167)"/>
<path d="M0 0 C3 1 3 1 3 1 Z " fill="#2A2A2A" transform="translate(144,167)"/>
<path d="M0 0 C3 1 3 1 3 1 Z " fill="#000000" transform="translate(116,167)"/>
<path d="M0 0 C3 1 3 1 3 1 Z " fill="#151515" transform="translate(112,167)"/>
<path d="M0 0 C3 1 3 1 3 1 Z " fill="#000000" transform="translate(72,167)"/>
<path d="M0 0 C3 1 3 1 3 1 Z " fill="#000000" transform="translate(64,167)"/>
<path d="" fill="#000000" transform="translate(0,0)"/>
<path d="" fill="#000000" transform="translate(0,0)"/>
<path d="" fill="#000000" transform="translate(0,0)"/>
<path d="" fill="#000000" transform="translate(0,0)"/>
<path d="" fill="#000000" transform="translate(0,0)"/>
<path d="" fill="#000000" transform="translate(0,0)"/>
<path d="" fill="#000000" transform="translate(0,0)"/>
<path d="" fill="#151515" transform="translate(0,0)"/>
<path d="" fill="#000000" transform="translate(0,0)"/>
<path d="" fill="#000000" transform="translate(0,0)"/>
<path d="" fill="#000000" transform="translate(0,0)"/>
<path d="" fill="#000000" transform="translate(0,0)"/>
<path d="" fill="#000000" transform="translate(0,0)"/>
<path d="" fill="#000000" transform="translate(0,0)"/>
<path d="" fill="#000000" transform="translate(0,0)"/>
<path d="M0 0 C2 1 2 1 2 1 Z " fill="#000000" transform="translate(1024,167)"/>
<path d="M0 0 C2 1 2 1 2 1 Z " fill="#000000" transform="translate(999,167)"/>
<path d="M0 0 C2 1 2 1 2 1 Z " fill="#200000" transform="translate(984,167)"/>
<path d="M0 0 C2 1 2 1 2 1 Z " fill="#000000" transform="translate(948,167)"/>
<path d="M0 0 C2 1 2 1 2 1 Z " fill="#000000" transform="translate(924,167)"/>
<path d="M0 0 C2 1 2 1 2 1 Z " fill="#000000" transform="translate(780,167)"/>
<path d="M0 0 C2 1 2 1 2 1 Z " fill="#000000" transform="translate(765,167)"/>
<path d="M0 0 C2 1 2 1 2 1 Z " fill="#200000" transform="translate(636,167)"/>
<path d="M0 0 C2 1 2 1 2 1 Z " fill="#000000" transform="translate(564,167)"/>
<path d="M0 0 C2 1 2 1 2 1 Z " fill="#000000" transform="translate(533,167)"/>
<path d="M0 0 C2 1 2 1 2 1 Z " fill="#000000" transform="translate(508,167)"/>
<path d="M0 0 C2 1 2 1 2 1 Z " fill="#000000" transform="translate(492,167)"/>
<path d="M0 0 C2 1 2 1 2 1 Z " fill="#200000" transform="translate(472,167)"/>
<path d="M0 0 C2 1 2 1 2 1 Z " fill="#000000" transform="translate(461,167)"/>
<path d="M0 0 C2 1 2 1 2 1 Z " fill="#000000" transform="translate(445,167)"/>
<path d="M0 0 C2 1 2 1 2 1 Z " fill="#000000" transform="translate(332,167)"/>
<path d="M0 0 C2 1 2 1 2 1 Z " fill="#000000" transform="translate(316,167)"/>
<path d="M0 0 C2 1 2 1 2 1 Z " fill="#000000" transform="translate(285,167)"/>
<path d="M0 0 C2 1 2 1 2 1 Z " fill="#000000" transform="translate(204,167)"/>
<path d="M0 0 C2 1 2 1 2 1 Z " fill="#000000" transform="translate(196,167)"/>
<path d="M0 0 C2 1 2 1 2 1 Z " fill="#000000" transform="translate(164,167)"/>
<path d="M0 0 C2 1 2 1 2 1 Z " fill="#000000" transform="translate(128,167)"/>
<path d="M0 0 C2 1 2 1 2 1 Z " fill="#000000" transform="translate(120,167)"/>
<path d="M0 0 C2 1 2 1 2 1 Z " fill="#000000" transform="translate(109,167)"/>
<path d="M0 0 C2 1 2 1 2 1 Z " fill="#000000" transform="translate(85,167)"/>
<path d="M0 0 C2 1 2 1 2 1 Z " fill="#000000" transform="translate(51,166)"/>
<path d="" fill="#000000" transform="translate(0,0)"/>
<path d="" fill="#000000" transform="translate(0,0)"/>
<path d="" fill="#000000" transform="translate(0,0)"/>
<path d="" fill="#000000" transform="translate(0,0)"/>
<path d="" fill="#000000" transform="translate(0,0)"/>
<path d="" fill="#000000" transform="translate(0,0)"/>
<path d="" fill="#000000" transform="translate(0,0)"/>
<path d="" fill="#000000" transform="translate(0,0)"/>
<path d="" fill="#000000" transform="translate(0,0)"/>
<path d="" fill="#000000" transform="translate(0,0)"/>
<path d="" fill="#000000" transform="translate(0,0)"/>
<path d="" fill="#000000" transform="translate(0,0)"/>
<path d="" fill="#000000" transform="translate(0,0)"/>
<path d="" fill="#000000" transform="translate(0,0)"/>
<path d="" fill="#000000" transform="translate(0,0)"/>
<path d="" fill="#000000" transform="translate(0,0)"/>
<path d="" fill="#000000" transform="translate(0,0)"/>
<path d="" fill="#000000" transform="translate(0,0)"/>
<path d="" fill="#000000" transform="translate(0,0)"/>
<path d="" fill="#000000" transform="translate(0,0)"/>
<path d="" fill="#000000" transform="translate(0,0)"/>
<path d="" fill="#000000" transform="translate(0,0)"/>
<path d="" fill="#000000" transform="translate(0,0)"/>
<path d="" fill="#000000" transform="translate(0,0)"/>
<path d="" fill="#000000" transform="translate(0,0)"/>
<path d="" fill="#000000" transform="translate(0,0)"/>
<path d="" fill="#000000" transform="translate(0,0)"/>
<path d="" fill="#000000" transform="translate(0,0)"/>
<path d="" fill="#000000" transform="translate(0,0)"/>
<path d="" fill="#000000" transform="translate(0,0)"/>
<path d="" fill="#000000" transform="translate(0,0)"/>
<path d="" fill="#000000" transform="translate(0,0)"/>
<path d="" fill="#000000" transform="translate(0,0)"/>
<path d="" fill="#000000" transform="translate(0,0)"/>
<path d="" fill="#000000" transform="translate(0,0)"/>
<path d="" fill="#000000" transform="translate(0,0)"/>
<path d="" fill="#000000" transform="translate(0,0)"/>
<path d="" fill="#000000" transform="translate(0,0)"/>
<path d="" fill="#000000" transform="translate(0,0)"/>
<path d="" fill="#000000" transform="translate(0,0)"/>
<path d="" fill="#000000" transform="translate(0,0)"/>
<path d="" fill="#404000" transform="translate(0,0)"/>
<path d="" fill="#000000" transform="translate(0,0)"/>
<path d="" fill="#400000" transform="translate(0,0)"/>
<path d="" fill="#000000" transform="translate(0,0)"/>
<path d="" fill="#000000" transform="translate(0,0)"/>
<path d="" fill="#000000" transform="translate(0,0)"/>
<path d="" fill="#000000" transform="translate(0,0)"/>
<path d="" fill="#000000" transform="translate(0,0)"/>
<path d="" fill="#000000" transform="translate(0,0)"/>
<path d="" fill="#000000" transform="translate(0,0)"/>
<path d="" fill="#000000" transform="translate(0,0)"/>
<path d="" fill="#000000" transform="translate(0,0)"/>
<path d="" fill="#000000" transform="translate(0,0)"/>
<path d="" fill="#000000" transform="translate(0,0)"/>
<path d="" fill="#000000" transform="translate(0,0)"/>
<path d="" fill="#000000" transform="translate(0,0)"/>
<path d="" fill="#000000" transform="translate(0,0)"/>
<path d="" fill="#000000" transform="translate(0,0)"/>
<path d="" fill="#000000" transform="translate(0,0)"/>
<path d="" fill="#000000" transform="translate(0,0)"/>
<path d="" fill="#000000" transform="translate(0,0)"/>
<path d="" fill="#000000" transform="translate(0,0)"/>
<path d="" fill="#000000" transform="translate(0,0)"/>
<path d="" fill="#000000" transform="translate(0,0)"/>
<path d="" fill="#000055" transform="translate(0,0)"/>
<path d="" fill="#000000" transform="translate(0,0)"/>
<path d="" fill="#000000" transform="translate(0,0)"/>
<path d="" fill="#000000" transform="translate(0,0)"/>
<path d="" fill="#000000" transform="translate(0,0)"/>
<path d="" fill="#000000" transform="translate(0,0)"/>
<path d="" fill="#000000" transform="translate(0,0)"/>
<path d="" fill="#000000" transform="translate(0,0)"/>
<path d="" fill="#000000" transform="translate(0,0)"/>
<path d="" fill="#000000" transform="translate(0,0)"/>
<path d="" fill="#000000" transform="translate(0,0)"/>
<path d="" fill="#000000" transform="translate(0,0)"/>
<path d="" fill="#000000" transform="translate(0,0)"/>
<path d="" fill="#000000" transform="translate(0,0)"/>
<path d="" fill="#000000" transform="translate(0,0)"/>
<path d="" fill="#000000" transform="translate(0,0)"/>
<path d="" fill="#000000" transform="translate(0,0)"/>
<path d="" fill="#000000" transform="translate(0,0)"/>
<path d="" fill="#000000" transform="translate(0,0)"/>
<path d="" fill="#000000" transform="translate(0,0)"/>
<path d="" fill="#000000" transform="translate(0,0)"/>
<path d="" fill="#000000" transform="translate(0,0)"/>
<path d="" fill="#000000" transform="translate(0,0)"/>
<path d="" fill="#000000" transform="translate(0,0)"/>
<path d="" fill="#000000" transform="translate(0,0)"/>
<path d="" fill="#000000" transform="translate(0,0)"/>
<path d="" fill="#000000" transform="translate(0,0)"/>
<path d="" fill="#000000" transform="translate(0,0)"/>
<path d="" fill="#000000" transform="translate(0,0)"/>
<path d="" fill="#000000" transform="translate(0,0)"/>
<path d="" fill="#000000" transform="translate(0,0)"/>
<path d="" fill="#000000" transform="translate(0,0)"/>
<path d="" fill="#000000" transform="translate(0,0)"/>
<path d="" fill="#000000" transform="translate(0,0)"/>
<path d="" fill="#000000" transform="translate(0,0)"/>
<path d="" fill="#000000" transform="translate(0,0)"/>
<path d="" fill="#000000" transform="translate(0,0)"/>
<path d="" fill="#000000" transform="translate(0,0)"/>
<path d="" fill="#000000" transform="translate(0,0)"/>
<path d="" fill="#000000" transform="translate(0,0)"/>
<path d="" fill="#000000" transform="translate(0,0)"/>
<path d="" fill="#000000" transform="translate(0,0)"/>
<path d="" fill="#000000" transform="translate(0,0)"/>
<path d="" fill="#000000" transform="translate(0,0)"/>
<path d="" fill="#000000" transform="translate(0,0)"/>
</svg>
